<?xml version="1.0" standalone="no"?>
<!DOCTYPE svg PUBLIC "-//W3C//DTD SVG 20010904//EN"
 "http://www.w3.org/TR/2001/REC-SVG-20010904/DTD/svg10.dtd">
<svg version="1.0" xmlns="http://www.w3.org/2000/svg"
 width="512.000000pt" height="512.000000pt" viewBox="0 0 512.000000 512.000000"
 preserveAspectRatio="xMidYMid meet">
<metadata>
Created by potrace 1.14, written by Peter Selinger 2001-2017
</metadata>
<g transform="translate(0.000000,512.000000) scale(0.100000,-0.100000)"
fill="#000000" stroke="none">
<path d="M4105 4696 c-22 -7 -81 -36 -130 -66 -50 -29 -108 -63 -130 -76 -22
-12 -166 -95 -320 -184 -154 -89 -287 -163 -295 -165 -52 -11 -86 -24 -189
-73 -181 -85 -568 -230 -691 -257 -8 -2 -60 -15 -114 -30 -55 -14 -109 -27
-120 -29 -12 -2 -55 -11 -96 -20 -41 -9 -93 -18 -115 -21 -22 -4 -47 -8 -55
-10 -8 -2 -37 -7 -65 -10 -27 -3 -60 -8 -71 -10 -12 -3 -48 -7 -80 -10 -33 -4
-72 -8 -89 -10 -33 -4 -248 -15 -365 -19 -41 -1 -88 1 -105 6 -47 13 -144 22
-220 21 -115 -2 -231 -36 -340 -100 -17 -10 -71 -42 -120 -71 -206 -121 -305
-268 -372 -552 -28 -117 -24 -433 6 -605 108 -613 482 -1255 953 -1639 48 -39
100 -80 115 -92 29 -22 192 -124 198 -124 2 0 36 -15 77 -34 216 -100 416
-128 605 -83 96 23 351 169 442 253 76 70 122 140 180 271 99 228 322 558 564
839 93 108 163 184 170 184 2 0 3 -240 3 -532 0 -560 1 -576 45 -632 11 -14
50 -43 86 -63 36 -21 75 -45 87 -53 88 -58 134 -80 171 -80 112 1 234 122 307
305 29 73 30 104 30 1087 l1 578 41 40 c25 24 203 132 448 272 224 128 424
249 445 269 48 45 92 131 108 211 32 150 3 394 -64 553 -5 11 -19 45 -31 75
-99 243 -318 500 -530 622 -115 66 -281 94 -375 64z"/>
</g>
</svg>
